<?xml version="1.0" standalone="no"?>
<!DOCTYPE svg PUBLIC "-//W3C//DTD SVG 20010904//EN"
 "http://www.w3.org/TR/2001/REC-SVG-20010904/DTD/svg10.dtd">
<svg version="1.0" xmlns="http://www.w3.org/2000/svg"
 width="1280.000000pt" height="1248.000000pt" viewBox="0 0 1280.000000 1248.000000"
 preserveAspectRatio="xMidYMid meet">
<metadata>
Created by potrace 1.15, written by Peter Selinger 2001-2017
</metadata>
<g transform="translate(0.000000,1248.000000) scale(0.100000,-0.100000)"
fill="#000000" stroke="none">
<path d="M7325 12170 c-385 -170 -775 -341 -866 -380 l-166 -72 -125 56 c-69
31 -130 56 -135 56 -6 0 -51 -18 -102 -40 l-91 -41 -216 82 -216 82 -96 -2
c-93 -2 -98 -3 -206 -55 -88 -42 -121 -64 -160 -105 l-49 -53 -79 7 -80 7 -63
-62 -62 -62 -293 106 -293 106 -286 0 -286 0 -245 -63 c-274 -71 -247 -60
-659 -285 -306 -167 -477 -243 -593 -263 -40 -6 -80 -16 -89 -20 -9 -5 -200
-267 -425 -583 l-409 -575 -51 -1 c-44 0 -54 -4 -84 -35 l-34 -35 38 -39 38
-39 -26 -49 -27 -48 -97 6 c-107 8 -114 4 -143 -65 -12 -27 -10 -31 39 -78 68
-64 70 -89 15 -183 -22 -39 -91 -191 -152 -339 l-112 -270 -129 -607 c-71
-334 -167 -793 -214 -1020 l-85 -414 -7 -300 -7 -301 62 -214 c51 -175 255
-770 307 -896 35 -83 466 -403 849 -631 77 -46 148 -93 157 -104 17 -20 17
-23 -1 -57 -40 -76 -41 -77 -94 -51 -26 13 -48 21 -50 18 -2 -2 -34 -44 -70
-93 l-67 -89 86 -89 c47 -49 84 -92 82 -97 -2 -4 -25 -43 -53 -85 l-50 -77
-47 5 -48 5 0 -55 c0 -54 -1 -56 -105 -194 -58 -77 -105 -141 -105 -143 0 -2
36 -34 81 -71 73 -61 79 -70 67 -87 -7 -10 -39 -55 -72 -99 -55 -76 -57 -81
-43 -103 25 -37 87 -97 129 -123 53 -34 169 -77 178 -67 4 4 40 57 79 116 40
59 75 106 79 104 4 -3 37 -23 75 -46 37 -22 71 -41 75 -41 4 0 47 59 97 130
49 72 94 130 100 130 5 0 36 -6 67 -14 32 -7 60 -11 63 -8 13 13 2 61 -24 106
l-29 49 51 76 c29 41 55 80 59 85 4 6 53 -14 118 -48 61 -32 114 -56 119 -54
5 2 35 41 66 87 l58 84 -17 53 c-16 52 -16 54 6 88 13 20 25 36 28 36 3 0 57
-59 120 -131 l115 -131 288 -194 c158 -107 287 -198 287 -202 0 -4 -70 -298
-155 -655 l-156 -647 -78 -183 c-126 -291 -155 -432 -132 -645 14 -137 11
-132 176 -261 278 -218 718 -471 1091 -630 136 -58 168 -61 267 -31 119 37
206 104 502 391 148 143 301 236 638 388 183 83 216 103 448 277 289 218 495
337 614 356 104 16 317 4 460 -26 66 -14 128 -26 137 -26 27 0 174 146 229
228 28 43 52 78 53 79 1 2 45 14 97 27 183 46 484 180 612 272 42 31 54 34
115 34 l67 0 91 -89 c75 -73 108 -97 193 -140 57 -28 121 -64 144 -80 87 -59
232 -121 286 -121 19 0 38 -14 71 -55 92 -112 226 -200 349 -227 32 -7 80 -28
111 -49 384 -260 989 -46 1709 605 491 444 969 1075 1144 1511 24 61 60 142
79 180 244 485 466 1322 545 2055 24 230 24 660 0 818 -50 320 -132 492 -301
629 -33 26 -80 70 -105 97 -172 183 -433 287 -688 274 -63 -3 -72 -1 -68 13 6
18 -61 85 -135 136 -102 69 -293 150 -397 168 -27 4 -43 12 -43 21 0 8 -4 14
-8 14 -18 0 -427 41 -437 44 -5 1 -19 51 -31 110 l-22 108 60 222 c33 121 86
329 119 461 l59 240 0 272 c0 265 1 276 30 419 30 140 35 154 130 344 l99 198
50 218 c50 213 51 221 51 373 -1 105 -6 184 -18 243 l-17 88 -94 85 c-51 47
-97 85 -103 85 -5 0 -508 214 -1117 475 -658 282 -1237 523 -1427 595 -175 66
-323 119 -329 119 -5 -1 -325 -140 -710 -309z m1058 150 c206 -78 778 -317
1437 -599 l1095 -469 82 -74 81 -73 16 -85 c10 -54 16 -140 16 -236 0 -145 -2
-159 -49 -360 l-48 -209 -101 -200 c-98 -197 -100 -203 -131 -354 -30 -150
-31 -162 -31 -424 l0 -269 -59 -242 c-33 -132 -86 -340 -119 -462 l-60 -221
24 -117 c13 -65 26 -121 29 -126 3 -4 51 -11 107 -15 l103 -8 -120 -18 c-66
-10 -145 -25 -175 -33 -30 -8 -55 -14 -55 -13 0 1 -25 29 -55 62 -76 82 -162
154 -245 203 -38 23 -106 71 -150 108 -104 87 -102 86 -227 129 l-107 37 -67
-26 c-36 -15 -67 -26 -68 -24 -1 2 -17 89 -35 193 -41 233 -59 284 -121 346
-71 71 -139 77 -247 22 -43 -21 -77 -53 -163 -155 l-109 -128 -19 28 c-39 54
-61 112 -151 387 -50 154 -109 317 -130 362 -78 163 -167 280 -273 358 -31 24
-110 100 -176 170 l-118 128 14 106 c14 100 16 108 54 150 38 43 84 111 139
203 19 32 49 57 119 101 l93 58 31 -26 c123 -99 221 -169 281 -199 62 -32 79
-36 145 -36 184 1 381 81 655 267 33 22 220 138 415 258 195 120 367 227 383
237 15 11 27 17 27 13 0 -3 -25 -38 -55 -79 -84 -111 -153 -232 -174 -305
-130 -439 -148 -666 -79 -968 21 -92 23 -95 79 -148 75 -69 133 -89 238 -83
53 4 94 13 135 32 33 14 60 25 62 23 2 -2 -7 -206 -20 -454 -24 -446 -24 -452
-49 -494 l-26 -43 -19 44 c-119 273 -286 586 -363 679 -99 119 -229 284 -229
289 0 4 21 27 46 53 l45 46 -37 64 c-45 77 -94 129 -123 129 -27 0 -86 -53
-117 -105 l-25 -43 -64 43 c-56 38 -159 85 -185 85 -4 0 -16 33 -25 73 l-18
72 75 122 75 122 209 172 c250 205 230 187 218 199 -7 7 -83 -50 -229 -170
l-219 -180 -78 -126 c-43 -69 -78 -132 -78 -140 0 -24 32 -148 40 -157 5 -5
37 -19 73 -32 66 -23 159 -79 192 -115 18 -20 19 -20 51 37 43 77 85 117 113
108 23 -7 56 -47 92 -113 l23 -42 -49 -50 -48 -49 41 -53 c22 -29 90 -114 151
-188 90 -109 129 -168 205 -310 52 -96 129 -251 172 -345 42 -93 78 -171 79
-173 2 -2 21 27 44 63 l42 66 24 467 c14 257 25 475 25 485 0 16 -3 16 -42 -4
-78 -40 -149 -59 -217 -59 -80 0 -132 22 -195 80 -41 38 -46 49 -65 128 -60
256 -52 473 28 772 15 58 33 127 40 154 24 99 116 253 247 412 48 60 59 84 34
84 -9 0 -753 -456 -945 -580 -266 -171 -404 -229 -570 -237 -95 -5 -103 -4
-155 22 -75 38 -149 89 -249 173 l-85 70 -80 -51 c-45 -28 -93 -57 -107 -66
-14 -8 -52 -59 -84 -112 -32 -54 -79 -122 -105 -151 -46 -52 -47 -54 -59 -153
-7 -55 -14 -107 -16 -115 -6 -20 224 -266 302 -324 151 -111 269 -312 373
-639 116 -362 148 -442 200 -492 l27 -25 114 135 c96 115 123 140 173 165 104
52 178 35 236 -57 39 -62 43 -76 86 -313 20 -113 38 -206 39 -208 1 -1 37 11
80 28 l78 31 106 -37 c93 -33 117 -47 194 -110 48 -40 125 -95 170 -123 99
-59 253 -200 221 -201 -11 0 -31 11 -44 25 -13 14 -26 25 -29 25 -4 0 -17 -29
-30 -65 -16 -46 -27 -63 -35 -57 -6 5 -48 37 -94 72 l-82 63 22 36 c12 20 30
48 41 64 l19 28 -96 44 -95 45 -44 -47 -44 -46 -67 28 c-37 16 -69 32 -72 36
-3 5 2 34 10 66 8 31 14 58 13 59 -1 1 -45 -6 -97 -15 -66 -12 -96 -21 -97
-31 -5 -25 54 -781 61 -787 21 -22 20 50 -5 382 -15 204 -28 375 -29 381 0 10
117 40 125 32 2 -2 -2 -25 -8 -51 -6 -29 -7 -50 -1 -55 5 -4 45 -25 90 -46
l81 -38 45 48 46 49 70 -34 70 -34 -34 -52 c-18 -29 -35 -57 -36 -63 -2 -5 40
-42 92 -82 52 -40 101 -78 108 -85 10 -9 -13 -25 -112 -74 -512 -255 -1076
-792 -1538 -1466 -334 -487 -522 -870 -642 -1309 l-33 -120 -57 -13 c-30 -7
-74 -22 -96 -33 -41 -21 -41 -21 -35 -68 15 -115 12 -110 68 -138 29 -15 53
-28 55 -29 3 -3 -36 -236 -40 -240 -2 -1 -77 -19 -168 -39 -91 -20 -226 -51
-301 -69 l-137 -32 19 -36 c25 -50 116 -105 296 -178 l148 -60 50 50 c28 27
53 49 55 49 3 0 4 -31 2 -69 l-4 -69 -59 -7 c-86 -10 -173 10 -321 72 -134 56
-143 59 -153 44 -3 -6 24 -26 60 -46 36 -20 67 -41 70 -46 4 -5 -10 -30 -30
-56 l-36 -47 177 -89 c184 -92 189 -93 266 -71 15 5 17 -9 20 -143 2 -81 2
-150 1 -151 -1 -2 -33 13 -72 35 l-71 38 -32 -18 -31 -18 -90 60 -89 59 -42
-14 c-33 -12 -50 -28 -85 -79 -24 -36 -46 -63 -48 -61 -9 9 32 74 83 133 55
62 60 79 48 143 -6 29 -17 37 -121 88 l-114 57 -32 -35 c-18 -19 -45 -50 -60
-69 -15 -18 -30 -31 -33 -28 -7 7 101 169 183 276 49 63 62 86 51 92 -7 4 -16
5 -19 1 -26 -29 -165 -223 -202 -284 -46 -73 -47 -75 -34 -113 l13 -38 69 81
c37 45 70 82 71 82 2 0 46 -21 98 -47 64 -31 96 -54 100 -67 13 -46 5 -69 -43
-124 -62 -73 -102 -153 -107 -214 -2 -26 0 -48 4 -48 4 1 41 49 82 108 100
141 108 143 218 71 101 -67 102 -72 28 -213 -45 -86 -56 -117 -63 -181 l-9
-76 60 -36 60 -35 46 19 c37 15 50 28 74 73 15 30 46 86 67 123 l38 69 -30 61
c-43 86 -43 85 -91 77 -40 -8 -50 -15 -91 -71 -14 -19 -17 -20 -11 -4 4 11 17
49 28 83 12 35 29 68 38 73 12 7 37 -1 92 -28 l74 -37 7 -92 c8 -103 4 -155
-18 -231 -14 -45 -14 -57 0 -102 12 -41 19 -51 36 -51 36 0 44 -11 67 -95 48
-174 122 -347 193 -452 l36 -53 -63 0 c-59 0 -68 -3 -137 -49 -155 -103 -404
-212 -587 -259 l-104 -26 -46 -69 c-51 -78 -125 -162 -183 -208 l-39 -31 -133
27 c-157 32 -356 43 -466 26 -131 -21 -320 -131 -666 -390 -121 -90 -223 -158
-280 -186 -49 -24 -166 -80 -259 -124 -287 -138 -356 -184 -548 -366 -93 -88
-199 -186 -236 -218 -89 -76 -210 -137 -288 -144 -54 -5 -68 -1 -169 42 -436
186 -972 507 -1197 716 -46 42 -48 47 -58 122 -14 107 -13 186 4 290 19 114
43 186 131 392 l74 170 158 662 159 662 -297 202 c-194 131 -310 216 -331 243
l-32 41 49 -44 c40 -35 159 -101 181 -101 3 0 -19 34 -48 76 -43 63 -68 87
-138 133 -47 31 -87 59 -90 62 -3 3 -32 23 -65 44 -85 54 -209 165 -284 254
-35 42 -66 77 -70 79 -4 1 -29 -20 -56 -48 -49 -50 -49 -50 -115 -50 l-65 0
-160 160 c-88 88 -166 158 -172 155 -10 -3 -10 0 -2 13 9 14 -2 41 -56 140
l-67 122 7 78 c6 72 9 79 38 100 l32 22 7 -76 c7 -71 11 -82 69 -172 116 -181
206 -289 299 -357 39 -29 51 -32 80 -26 33 6 35 9 32 44 -4 42 -6 41 71 23 31
-7 57 -11 57 -8 0 2 -27 43 -61 90 -56 79 -94 146 -54 97 73 -91 133 -151 212
-215 76 -62 102 -77 144 -84 81 -14 84 6 28 181 -29 91 -31 94 -97 146 -37 30
-127 93 -200 141 -127 82 -133 85 -128 59 10 -51 19 -148 13 -143 -3 3 -15 54
-25 113 -17 94 -24 112 -57 154 -34 43 -31 41 31 -18 73 -71 193 -145 301
-185 35 -13 66 -24 68 -24 5 0 -3 202 -11 287 l-5 53 -87 56 c-174 113 -337
257 -387 342 -12 19 -72 62 -179 127 -88 54 -188 122 -222 151 -58 50 -62 57
-97 161 -34 99 -37 117 -38 223 0 105 4 131 48 303 l48 188 110 98 c60 54 159
145 218 202 l108 104 116 330 c96 276 117 348 130 440 13 91 30 151 101 345
l85 235 125 170 c161 218 177 237 84 92 -24 -38 -42 -70 -40 -73 14 -14 518
-237 523 -232 2 2 26 51 53 110 28 58 64 127 81 152 17 24 31 48 31 53 0 7
-450 263 -467 265 -4 1 -28 -31 -52 -70 -24 -40 -45 -71 -47 -70 -1 2 8 61 21
132 19 109 26 133 46 148 13 11 40 33 59 51 19 18 29 25 22 15 -7 -9 -9 -18
-5 -21 36 -22 548 -216 554 -210 11 12 199 361 199 371 0 7 -521 162 -545 162
-6 0 -39 -45 -74 -100 -34 -55 -65 -100 -67 -100 -2 0 14 33 36 73 21 39 61
122 89 184 38 87 46 113 35 117 -9 4 -21 -11 -36 -47 -12 -29 -57 -123 -101
-211 -62 -124 -90 -169 -130 -210 -29 -28 -60 -55 -69 -61 -13 -7 -24 -47 -42
-152 l-25 -141 -129 -174 c-71 -95 -136 -184 -144 -198 -9 -14 -54 -131 -101
-260 -69 -190 -88 -253 -97 -330 -9 -78 -33 -157 -128 -434 l-117 -339 -175
-163 c-96 -89 -188 -172 -203 -184 l-28 -22 5 23 c3 13 8 105 11 204 6 158 12
202 46 360 146 669 321 1175 590 1705 271 535 599 1000 1004 1420 125 129 133
141 200 272 l70 137 41 -6 c52 -7 84 10 164 83 59 55 769 518 779 509 2 -3 2
-6 0 -8 -2 -2 -89 -77 -194 -168 -278 -241 -356 -303 -495 -394 -149 -98 -453
-360 -514 -442 -23 -32 -105 -134 -182 -228 -285 -347 -352 -460 -323 -543 10
-28 58 -62 88 -62 15 0 15 2 -24 -112 -28 -79 -46 -112 -84 -157 -42 -48 -53
-70 -74 -148 -19 -69 -37 -108 -75 -162 -41 -58 -54 -88 -77 -178 -26 -103
-30 -110 -79 -158 -52 -50 -52 -51 -91 -200 -37 -140 -42 -153 -96 -226 -57
-77 -57 -77 -64 -167 -7 -89 -8 -90 -59 -155 -50 -62 -54 -72 -81 -193 -28
-123 -31 -129 -79 -181 l-49 -54 -12 -110 c-11 -107 -12 -110 -50 -149 -33
-34 -65 -51 -65 -35 0 2 20 58 45 125 25 67 45 123 45 125 0 2 -30 6 -67 10
-38 3 -80 8 -95 10 -19 3 -28 0 -28 -9 0 -16 30 -26 85 -26 69 -1 69 -3 14
-149 -27 -73 -49 -135 -47 -136 2 -1 23 3 48 11 29 8 60 29 89 58 l43 44 12
111 c12 110 12 111 53 153 53 56 56 62 88 203 26 112 31 123 80 182 l52 63 6
90 7 90 56 74 c52 70 58 83 94 223 39 147 39 148 89 194 47 44 51 51 81 165
27 100 40 129 80 185 36 49 54 88 75 159 22 78 35 104 74 150 38 44 56 78 89
174 45 126 44 136 -6 136 -13 0 -34 11 -48 25 -21 21 -24 31 -19 58 19 86 91
192 318 470 73 89 155 190 181 225 68 90 357 339 506 437 69 45 170 119 224
164 161 133 506 434 506 441 0 4 -13 13 -30 20 -29 12 -39 6 -397 -223 -202
-130 -384 -252 -403 -272 -46 -48 -118 -95 -144 -95 -12 0 -31 7 -43 15 -20
14 -22 13 -46 -28 -13 -23 -50 -94 -82 -157 -54 -108 -65 -123 -189 -250 -461
-472 -855 -1062 -1141 -1706 -187 -420 -325 -853 -444 -1389 -47 -209 -50
-230 -56 -420 -7 -199 -8 -201 -61 -411 -51 -198 -54 -219 -54 -332 0 -114 2
-125 41 -238 36 -105 44 -143 64 -324 l22 -205 50 -100 c84 -167 100 -246 24
-112 l-42 73 -81 28 c-44 16 -137 60 -205 97 -68 37 -184 95 -257 127 -94 41
-175 87 -274 155 -78 54 -143 97 -146 97 -2 0 19 -52 46 -115 49 -110 54 -117
123 -175 102 -84 282 -194 564 -345 l243 -130 -6 -93 -7 -93 41 -71 c47 -82
48 -82 -104 9 -234 140 -529 345 -660 459 l-134 115 -31 82 c-100 268 -230
650 -283 832 l-60 210 6 300 7 300 79 385 c43 212 140 671 214 1020 l136 635
113 270 c101 241 131 302 286 570 160 275 209 348 592 886 l419 586 77 13
c114 18 290 92 528 223 503 275 452 252 725 323 l245 64 285 0 285 0 300 -109
300 -109 66 65 66 65 79 -7 79 -7 46 54 c38 44 66 63 153 105 102 50 109 52
198 54 l93 1 218 -82 218 -83 95 43 95 43 127 -57 c70 -31 132 -56 137 -56 6
0 399 171 875 379 476 209 866 380 868 380 1 1 157 -57 345 -129z m-7384
-2362 c-7 -13 -19 -33 -26 -45 l-15 -22 -26 24 c-25 24 -25 25 -7 45 11 12 31
20 52 20 32 0 33 -1 22 -22z m-132 -222 c1 -1 -19 -39 -45 -84 -37 -67 -48
-79 -53 -64 -4 11 -28 36 -53 56 l-45 38 16 33 16 33 81 -5 c44 -3 82 -6 83
-7z m2138 -642 c127 -36 231 -67 233 -69 7 -6 -22 -55 -32 -55 -7 0 -73 25
-149 55 -75 30 -142 55 -149 55 -7 0 -53 -52 -103 -116 -49 -63 -93 -118 -98
-121 -8 -5 -115 34 -131 48 -5 4 30 68 79 144 65 101 91 134 104 131 9 -3 120
-35 246 -72z m53 -100 c67 -27 122 -53 122 -57 0 -13 -114 -217 -121 -214 -3
1 -74 26 -157 56 -84 29 -152 56 -152 60 0 16 164 212 174 208 7 -3 67 -27
134 -53z m-458 -427 c-36 -7 -39 -11 -96 -133 -32 -69 -62 -128 -67 -131 -7
-4 -87 27 -135 53 -3 1 53 91 154 251 l33 52 75 -42 74 -42 -38 -8z m70 -37
c19 -5 76 -35 127 -66 l92 -56 -70 -104 c-38 -57 -72 -104 -74 -104 -9 0 -250
102 -257 108 -6 6 70 179 95 220 10 15 40 15 87 2z m9 -335 l82 -34 20 32 c12
17 18 23 14 12 -4 -11 -10 -28 -12 -37 -3 -10 -9 -18 -13 -18 -11 0 -180 71
-180 76 0 7 6 5 89 -31z m7683 -475 c27 0 48 -3 48 -7 0 -7 -110 -46 -167 -61
-10 -3 -9 4 1 30 7 18 16 41 19 51 6 17 9 17 29 3 13 -9 43 -16 70 -16z m685
1 c125 -24 247 -69 348 -128 76 -44 147 -93 115 -80 -8 3 -53 22 -100 41 -153
64 -243 80 -435 81 -128 0 -191 -5 -255 -18 -266 -57 -531 -192 -800 -407
-126 -101 -364 -337 -479 -475 -737 -885 -1292 -2186 -1427 -3350 -25 -211
-25 -617 -1 -775 50 -327 149 -577 290 -735 27 -30 44 -55 39 -55 -19 0 -150
100 -203 156 -206 218 -344 602 -381 1059 -71 880 100 1826 447 2467 202 372
423 702 691 1030 129 157 416 454 563 581 394 340 791 550 1161 612 118 20
313 18 427 -4z m189 -140 c100 -25 219 -71 304 -118 l64 -36 -100 -17 c-339
-57 -719 -248 -1104 -554 -155 -123 -473 -440 -604 -602 -276 -340 -455 -640
-661 -1104 -256 -577 -454 -1209 -549 -1755 -53 -303 -61 -401 -61 -735 0
-285 2 -327 23 -442 39 -218 99 -392 181 -528 27 -44 35 -66 27 -68 -22 -5
-146 46 -220 90 -88 52 -200 159 -264 251 -198 287 -282 728 -242 1272 95
1278 803 2867 1660 3725 363 364 741 584 1096 640 99 15 357 5 450 -19z m712
-210 c115 -30 233 -91 332 -170 21 -17 11 -15 -52 9 -281 109 -629 67 -1007
-121 -573 -284 -1152 -871 -1543 -1564 -298 -528 -617 -1394 -752 -2042 -78
-378 -108 -645 -108 -963 1 -227 16 -381 54 -545 40 -173 118 -361 194 -468
19 -26 34 -50 34 -53 0 -11 -146 96 -184 135 -33 34 -43 39 -71 34 -39 -6 -54
11 -118 135 -82 159 -132 333 -162 557 -22 163 -22 502 0 710 76 733 343 1612
731 2400 498 1014 1465 1853 2265 1965 98 14 302 4 387 -19z m82 -152 c177
-21 337 -98 469 -224 114 -110 170 -214 216 -404 41 -170 50 -269 49 -561 0
-292 -12 -442 -60 -750 -92 -598 -293 -1294 -486 -1685 -27 -55 -67 -145 -89
-200 -282 -706 -1188 -1692 -1878 -2044 -254 -129 -427 -177 -616 -168 -180 8
-289 58 -420 192 -241 247 -355 614 -355 1140 0 377 56 772 175 1230 164 635
459 1376 731 1837 557 943 1445 1631 2124 1647 31 0 94 -4 140 -10z m-10744
-1757 c-3 -3 -12 1 -21 8 -9 8 -15 8 -15 2 0 -35 38 -176 90 -336 33 -101 62
-209 66 -239 9 -76 -10 -83 -30 -10 -9 32 -41 110 -71 173 -54 114 -54 116
-70 270 -21 209 -22 196 20 164 20 -15 33 -29 31 -32z m-811 -108 c52 -36 148
-88 228 -123 76 -34 195 -92 265 -130 70 -38 158 -80 196 -93 65 -22 71 -27
108 -83 50 -78 55 -98 31 -129 l-19 -24 -265 142 c-145 79 -309 172 -364 207
-128 81 -242 175 -254 208 -5 14 -16 43 -26 64 -19 45 -24 47 100 -39z m1022
-53 c94 -55 113 -71 133 -109 50 -92 163 -196 384 -350 54 -37 76 -44 76 -23
0 4 -53 44 -119 89 -130 91 -222 170 -272 235 -22 28 -3 14 56 -43 85 -81 202
-171 307 -236 37 -22 49 -36 53 -59 7 -52 13 -255 6 -255 -3 0 -55 25 -116 55
-90 45 -128 72 -206 145 -74 68 -98 86 -103 74 -12 -31 -5 -51 33 -103 28 -37
41 -67 46 -102 4 -27 17 -95 30 -151 19 -82 32 -114 65 -160 22 -31 40 -59 40
-62 0 -3 -19 -3 -43 0 l-43 6 4 -40 c6 -58 -23 -62 -86 -13 -88 70 -174 176
-286 355 -55 87 -56 90 -56 163 0 53 4 79 15 89 39 40 30 98 -57 374 -31 96
-59 190 -63 209 l-7 34 49 -29 c27 -16 99 -58 160 -93z m-134 -476 c4 -8 2
-17 -3 -20 -6 -4 -10 3 -10 14 0 25 6 27 13 6z m6477 -192 c-1 -13 -48 -194
-52 -198 -1 -1 -20 8 -40 21 -31 20 -38 30 -38 57 0 17 -3 42 -6 54 -5 17 1
25 27 39 55 28 109 41 109 27z m-5841 -147 c179 -119 190 -131 230 -260 19
-59 31 -109 28 -112 -3 -3 -21 -2 -40 1 -67 13 -309 235 -336 309 -11 29 -23
146 -15 146 3 0 63 -38 133 -84z m-420 -400 c125 -129 136 -136 225 -143 l75
-6 47 42 c26 23 50 40 53 39 4 -2 64 -62 134 -134 l127 -131 -30 -39 c-34 -45
-36 -59 -14 -113 l15 -39 -47 -71 c-26 -39 -52 -71 -58 -70 -18 0 -216 103
-216 112 1 28 -378 316 -521 396 -54 30 -56 31 -73 12 -16 -17 -19 -15 -92 60
l-76 77 57 76 57 75 49 -24 c26 -14 50 -25 52 -25 2 0 14 23 27 51 l24 51 50
-54 c27 -29 88 -93 135 -142z m6137 -63 c-11 -149 -13 -156 -61 -203 l-45 -44
-122 48 c-173 68 -309 150 -286 171 6 6 475 113 497 114 23 1 23 1 17 -86z
m-6363 -120 c67 -34 243 -158 364 -256 69 -56 132 -107 140 -114 14 -11 -4
-43 -123 -211 -6 -9 -344 198 -344 210 0 4 36 54 79 110 44 57 80 107 81 113
5 34 -30 2 -107 -99 -48 -63 -91 -115 -95 -116 -10 0 -248 154 -248 160 0 4
15 4 33 2 31 -4 35 0 107 107 41 61 76 111 78 111 1 0 17 -7 35 -17z m6057
-198 c48 -25 178 -48 231 -41 l47 6 7 -62 c3 -35 8 -75 11 -90 5 -28 3 -30
-62 -43 -25 -5 -58 7 -175 64 -79 39 -150 74 -158 80 -12 8 -8 17 20 55 19 25
38 46 42 46 4 0 21 -7 37 -15z m-5037 -37 c-5 -10 -33 10 -33 23 0 5 9 4 19
-3 11 -7 17 -16 14 -20z m-1028 -158 c8 0 77 -39 152 -86 76 -47 158 -96 184
-110 43 -21 89 -74 89 -102 0 -7 -17 -6 -50 3 -36 10 -50 10 -53 1 -2 -6 -13
7 -25 29 -28 54 -101 114 -240 197 -64 39 -137 87 -162 108 -25 20 -69 48 -97
60 -37 16 -53 28 -53 41 0 16 24 4 120 -61 66 -44 126 -80 135 -80z m1167 79
c44 -31 83 -77 74 -86 -5 -6 -68 45 -156 126 l-45 42 45 -27 c24 -15 61 -39
82 -55z m-1374 -9 c41 -19 121 -79 122 -91 0 -4 -34 -50 -75 -104 -66 -87 -80
-115 -57 -115 4 0 41 45 82 100 41 55 78 100 81 100 4 0 49 -25 100 -55 117
-69 200 -138 229 -191 l23 -41 -73 -107 c-41 -58 -77 -106 -82 -106 -18 0
-118 69 -193 132 -76 65 -289 187 -302 174 -6 -6 -23 5 -72 47 l-33 27 93 125
c51 69 98 125 104 125 5 0 29 -9 53 -20z m112 -478 c30 -25 59 -49 63 -53 10
-7 -128 -219 -142 -219 -5 0 -8 7 -7 17 2 23 -212 189 -226 175 -7 -7 17 -31
78 -79 48 -37 99 -78 113 -90 l26 -23 -40 16 c-22 9 -53 23 -69 31 -40 21
-136 112 -136 130 0 7 32 56 71 108 39 52 68 99 64 104 -12 21 151 -73 205
-117z m6397 -75 l29 -53 -63 -114 c-49 -90 -68 -116 -93 -127 -29 -12 -36 -11
-77 14 l-46 26 7 70 c7 74 31 130 38 86 2 -18 14 -6 61 64 50 76 61 87 86 87
25 0 34 -8 58 -53z m113 -244 c6 -32 13 -70 16 -85 4 -22 2 -26 -14 -21 -27 7
-41 65 -29 121 4 23 10 42 12 42 2 0 9 -26 15 -57z m1148 -1227 c50 -46 234
-176 249 -176 5 0 20 -11 33 -25 l23 -24 -39 10 c-88 24 -169 74 -257 158 -62
60 -84 87 -75 93 18 11 14 13 66 -36z"/>
<path d="M8360 12038 c-448 -213 -1478 -669 -1534 -679 -46 -8 -58 -4 -225 63
-108 44 -196 86 -227 110 -49 37 -54 38 -129 38 -78 0 -80 -1 -175 -57 -228
-136 -219 -128 -300 -264 -47 -80 -100 -191 -149 -314 l-77 -190 -154 -108
c-137 -96 -183 -138 -142 -129 7 1 82 50 167 110 l154 107 73 185 c49 126 97
226 150 316 l77 130 151 92 151 92 72 0 c67 0 76 -3 111 -32 22 -18 117 -64
228 -109 172 -71 194 -78 236 -72 92 12 1861 811 1862 841 0 6 -6 12 -12 11
-7 0 -146 -63 -308 -141z"/>
<path d="M4694 11566 c-45 -77 -59 -91 -169 -176 -66 -51 -122 -94 -124 -96
-3 -3 0 -9 6 -15 7 -7 36 3 96 32 l86 43 25 -23 c20 -19 146 -58 146 -45 0 43
29 177 55 255 19 57 35 104 35 106 0 2 -24 3 -54 3 l-53 0 -49 -84z m116 50
c0 -3 -14 -43 -30 -90 -17 -47 -33 -112 -37 -146 l-6 -61 -41 7 c-23 3 -54 18
-70 31 -21 18 -36 23 -55 18 -18 -5 -8 7 34 40 43 33 74 69 108 126 39 64 53
79 73 79 13 0 24 -2 24 -4z"/>
<path d="M4416 11257 c-51 -27 -61 -38 -75 -77 -16 -43 -18 -45 -63 -50 -47
-5 -47 -6 -100 -90 -49 -79 -56 -85 -100 -98 -37 -10 -60 -27 -109 -80 -34
-37 -72 -83 -84 -103 -18 -28 -33 -38 -67 -45 -40 -8 -47 -15 -103 -100 -51
-77 -69 -96 -119 -125 -49 -29 -69 -49 -121 -127 -35 -52 -121 -155 -192 -230
-71 -75 -171 -189 -223 -252 -52 -63 -148 -175 -214 -248 -82 -92 -116 -136
-109 -143 12 -12 183 173 349 376 54 66 154 179 222 250 70 73 153 172 188
225 55 81 73 100 124 130 49 28 67 46 100 100 56 92 70 107 110 114 19 3 29 3
23 0 -21 -9 -15 -23 19 -40 23 -12 83 -20 208 -29 l175 -12 153 -66 153 -67
102 59 c56 32 135 78 176 101 l73 42 -137 54 -136 54 -172 0 c-122 0 -206 -6
-289 -20 -105 -17 -123 -18 -165 -5 -49 15 -55 14 -90 -18 -49 -44 -19 4 53
86 64 73 81 86 115 92 21 4 42 13 47 20 6 11 45 12 217 5 241 -9 212 -20 279
105 32 59 45 96 50 142 11 98 5 103 -112 103 -90 -1 -101 -3 -156 -33z m236
-64 c-3 -52 -11 -76 -50 -146 l-46 -83 -160 4 c-89 2 -173 7 -188 10 l-28 7
33 55 c32 53 35 55 82 60 l50 5 19 54 c17 48 24 56 70 77 43 21 64 24 136 22
l85 -3 -3 -62z m86 -484 c57 -23 102 -43 100 -44 -2 -2 -28 -17 -58 -35 l-55
-33 -181 -4 c-170 -5 -184 -4 -230 17 -39 17 -82 24 -204 31 -183 12 -220 17
-220 29 0 4 18 22 41 38 39 29 42 30 82 16 37 -12 55 -11 152 5 76 13 166 19
290 20 l180 1 103 -41z m-117 -153 c-6 -8 -25 -19 -42 -26 -25 -11 -35 -10
-65 6 l-35 19 68 6 c37 3 72 6 77 7 5 1 3 -4 -3 -12z"/>
<path d="M2035 11149 c-4 -6 -5 -11 -4 -13 37 -27 135 -70 399 -176 298 -119
428 -183 610 -300 12 -8 11 -13 -8 -33 -12 -13 -22 -26 -22 -29 0 -4 -9 -27
-19 -52 l-20 -45 -123 56 c-152 68 -315 132 -708 278 l-305 114 -5 43 c-3 24
-9 43 -15 43 -13 0 -18 -39 -11 -79 6 -30 11 -33 209 -105 283 -103 665 -251
772 -299 50 -22 115 -51 146 -65 l56 -26 28 69 c15 38 38 79 51 91 13 13 24
27 24 34 0 6 -73 54 -162 107 -140 82 -209 114 -483 224 -176 70 -337 138
-357 151 -43 26 -45 27 -53 12z"/>
<path d="M6326 11067 c-8 -18 -36 -84 -63 -147 -27 -63 -64 -175 -82 -247
l-33 -133 -89 -56 c-49 -31 -89 -59 -89 -63 0 -22 20 -15 99 35 l88 54 219
-89 c644 -261 1138 -495 1491 -705 394 -235 621 -643 727 -1306 31 -194 57
-423 48 -429 -189 -130 -358 -266 -485 -391 -414 -405 -749 -867 -1048 -1445
-137 -264 -180 -369 -303 -729 -67 -197 -124 -348 -137 -365 -47 -59 -90 -67
-444 -79 -409 -14 -598 -3 -875 49 -560 107 -1068 326 -1958 846 -144 84 -265
153 -267 153 -3 0 -5 -6 -5 -14 0 -24 684 -418 1000 -576 615 -308 1125 -459
1651 -489 116 -7 259 -6 484 3 288 12 324 15 365 34 77 36 91 63 216 434 116
342 164 455 316 753 261 509 598 974 988 1366 146 147 205 198 358 308 100 73
182 136 182 141 0 36 -54 422 -75 535 -95 516 -276 877 -555 1111 -193 162
-863 495 -1610 801 -140 57 -256 106 -258 108 -14 13 68 285 124 412 48 110
59 143 48 147 -9 3 -19 -6 -28 -27z"/>
<path d="M10558 10841 c-146 -93 -281 -396 -282 -631 0 -119 15 -149 95 -189
181 -90 342 15 427 279 76 233 44 480 -71 550 -49 30 -113 26 -169 -9z m163
-22 c116 -82 117 -402 2 -621 -87 -166 -208 -220 -341 -151 -54 27 -58 31 -71
83 -45 179 99 570 251 680 51 37 115 41 159 9z"/>
<path d="M4785 10566 c-33 -7 -68 -16 -77 -21 -9 -6 -151 -138 -315 -295 -256
-244 -327 -319 -499 -525 -304 -363 -555 -731 -836 -1224 -186 -327 -238 -427
-344 -669 -69 -157 -157 -371 -196 -476 l-70 -191 6 -149 c3 -82 7 -150 9
-151 1 -2 162 -78 357 -170 195 -91 470 -229 610 -305 140 -76 350 -185 465
-242 l210 -104 83 15 83 16 50 89 c37 64 83 183 170 431 108 311 133 371 263
637 164 337 333 617 654 1081 293 425 538 701 1091 1230 l143 138 -13 57 -14
57 -245 122 c-135 67 -335 162 -445 210 -139 60 -272 129 -435 224 -271 158
-348 192 -481 213 -111 18 -141 19 -224 2z m235 -34 c124 -22 183 -47 392
-170 278 -162 311 -180 508 -265 167 -73 652 -306 667 -320 3 -3 9 -23 14 -45
l9 -40 -103 -98 c-588 -568 -831 -841 -1127 -1269 -320 -464 -499 -760 -662
-1099 -123 -256 -154 -331 -254 -620 -119 -341 -186 -490 -228 -506 -12 -4
-47 -11 -77 -15 l-55 -7 -240 120 c-131 66 -338 173 -459 239 -121 65 -376
192 -566 282 l-347 164 -6 51 c-3 28 -6 90 -6 138 0 83 4 97 69 280 38 106
126 320 195 476 105 237 159 343 337 655 400 701 799 1234 1242 1658 116 112
253 244 304 293 84 81 97 90 150 101 81 18 123 17 243 -3z"/>
<path d="M3878 10522 c-76 -32 -106 -53 -218 -151 -71 -63 -130 -116 -130
-118 0 -2 48 -3 108 -3 96 1 119 -2 222 -34 63 -19 158 -51 210 -70 52 -20
100 -36 105 -36 6 0 72 62 147 138 l138 137 -153 57 c-158 60 -327 119 -336
117 -3 0 -45 -17 -93 -37z m202 -30 c170 -58 320 -114 320 -121 0 -4 -24 -30
-53 -59 l-52 -51 -86 23 c-47 13 -112 27 -145 30 -58 7 -60 6 -108 -34 -26
-22 -52 -40 -57 -40 -5 0 -42 9 -82 21 -43 12 -99 20 -139 19 -38 0 -68 1 -68
4 0 2 45 44 101 92 79 70 117 95 177 120 42 17 77 32 77 33 1 0 52 -16 115
-37z m95 -229 c33 -9 64 -19 68 -23 4 -4 -9 -26 -30 -49 l-38 -42 -108 48
-108 48 28 23 c32 26 75 24 188 -5z"/>
<path d="M8300 10216 c-79 -58 -146 -144 -164 -211 -13 -50 -13 -62 -2 -75 8
-8 87 -98 176 -200 89 -102 192 -224 229 -272 63 -83 69 -88 144 -119 l79 -32
60 29 c33 16 63 35 68 44 4 8 15 49 24 90 l17 75 -33 98 c-39 117 -83 174
-296 391 -141 142 -225 216 -245 216 -7 0 -32 -15 -57 -34z m45 -58 c-27 -80
-71 -164 -112 -209 l-36 -40 -22 21 c-22 20 -22 24 -10 70 9 33 30 69 62 106
47 56 122 119 131 110 2 -3 -4 -29 -13 -58z m46 -39 c-37 -109 -103 -218 -144
-240 -15 -8 -23 -7 -35 5 -15 15 -13 20 25 58 44 46 89 129 118 217 17 52 18
53 36 34 19 -19 19 -20 0 -74z m50 -21 c-23 -80 -89 -202 -130 -242 -40 -39
-41 -39 -55 -20 -13 17 -12 22 18 54 59 63 91 123 140 264 6 18 8 18 23 3 14
-14 15 -22 4 -59z m313 -270 c73 -87 86 -108 115 -191 l32 -93 -17 -75 -16
-76 -54 -26 -54 -27 -66 26 c-60 25 -71 34 -142 123 -41 53 -111 136 -153 184
l-78 88 33 29 c18 16 47 56 65 89 34 64 81 184 81 204 -1 6 -14 -22 -29 -63
-40 -107 -75 -172 -116 -216 l-36 -38 -21 22 -21 21 40 40 c44 45 89 124 123
219 l23 63 105 -103 c57 -57 141 -147 186 -200z"/>
<path d="M1245 10072 c-46 -53 -82 -99 -77 -103 4 -4 107 -59 229 -123 193
-101 245 -123 407 -174 156 -50 200 -69 283 -120 l98 -61 22 21 c17 16 23 33
23 66 0 32 8 58 30 94 l30 49 -387 190 c-214 105 -429 206 -480 224 l-92 34
-86 -97z m174 33 c39 -13 242 -108 451 -211 l379 -187 -19 -28 c-13 -17 -20
-43 -20 -71 0 -24 -6 -53 -14 -63 -13 -18 -18 -16 -102 38 -75 47 -120 66
-269 113 -153 47 -213 73 -397 167 -120 62 -218 115 -218 119 0 9 122 148 130
148 4 0 39 -11 79 -25z"/>
<path d="M3453 10122 c-15 -21 -81 -90 -147 -154 -66 -65 -118 -119 -115 -122
5 -4 581 -176 590 -176 9 0 242 301 236 306 -2 3 -124 45 -270 93 l-266 89
-28 -36z m279 -78 c128 -42 235 -78 237 -80 5 -5 -42 -74 -51 -74 -4 0 -49 11
-100 25 -62 17 -119 25 -173 25 l-79 0 -58 -57 c-32 -32 -58 -60 -58 -64 0 -3
21 -14 46 -24 57 -22 52 -30 -7 -11 -24 8 -90 29 -146 46 l-101 30 126 130
c70 71 128 129 129 129 2 1 107 -33 235 -75z m62 -154 c38 -11 71 -21 73 -24
9 -8 -110 -147 -121 -143 -6 3 -64 26 -129 53 l-118 48 43 43 c42 43 43 43
113 43 40 0 100 -8 139 -20z"/>
<path d="M6743 9668 l-113 -91 153 -76 c163 -82 300 -169 437 -278 125 -99
358 -331 494 -491 l119 -140 76 -6 c42 -4 97 -9 122 -12 l46 -5 22 76 c31 104
27 208 -9 253 -142 175 -190 228 -263 299 -139 134 -297 243 -500 345 -68 34
-428 200 -462 214 -5 2 -61 -38 -122 -88z m275 -14 c409 -184 597 -297 780
-468 63 -59 239 -260 274 -314 23 -35 24 -135 2 -214 l-17 -59 -41 5 c-23 3
-70 8 -106 12 l-65 6 -89 105 -89 104 6 72 5 72 -45 62 c-101 141 -284 271
-530 375 -91 38 -172 67 -179 64 -7 -3 -64 20 -125 50 -94 47 -109 58 -98 69
30 29 154 125 162 125 5 0 75 -30 155 -66z m183 -317 c155 -71 339 -214 410
-319 34 -49 38 -62 32 -88 l-8 -30 -75 86 c-96 109 -227 224 -360 315 -153
105 -153 107 1 36z"/>
<path d="M2947 9574 c-71 -81 -125 -150 -120 -154 10 -9 551 -240 561 -240 7
1 272 353 268 357 -4 4 -566 183 -574 183 -4 0 -65 -66 -135 -146z m413 29
c129 -41 238 -78 242 -82 4 -3 -6 -22 -22 -41 l-29 -35 -85 43 c-80 39 -92 42
-169 42 l-82 0 -69 -85 c-38 -47 -67 -87 -65 -88 2 -2 68 -32 147 -67 79 -35
146 -68 148 -72 3 -4 -30 8 -73 26 -362 157 -428 187 -428 195 0 4 47 63 105
129 84 96 109 119 125 115 11 -3 126 -39 255 -80z m91 -139 c50 -25 68 -39 62
-47 -5 -7 -37 -47 -71 -89 l-62 -77 -125 57 c-68 31 -125 60 -125 64 0 4 23
34 50 67 l51 61 75 0 c66 0 83 -4 145 -36z"/>
<path d="M6370 9334 c-69 -52 -126 -98 -127 -102 -2 -4 16 -31 40 -60 38 -49
52 -58 152 -98 86 -36 160 -78 342 -200 227 -151 235 -158 445 -363 l214 -209
108 -32 108 -31 71 57 c40 32 73 58 75 59 1 1 -3 39 -9 86 -12 83 -12 84 -97
199 l-86 115 -266 198 -267 199 -288 139 c-158 76 -288 139 -289 138 0 0 -57
-43 -126 -95z m412 -74 l271 -130 265 -197 c264 -197 265 -198 348 -308 70
-93 83 -118 89 -160 3 -27 8 -60 11 -72 3 -17 -10 -32 -59 -72 l-63 -50 -99
29 c-98 29 -99 29 -182 112 l-82 83 31 50 31 50 -29 85 -29 84 -135 103 c-97
75 -186 130 -315 200 -99 52 -206 110 -238 127 l-58 31 -74 -40 c-67 -36 -91
-55 -67 -55 5 0 17 -7 28 -15 12 -10 1 -8 -32 6 -51 20 -123 95 -107 110 23
22 209 159 216 159 5 0 130 -59 279 -130z m-7 -194 c159 -85 248 -140 352
-219 l139 -105 22 -72 c21 -71 21 -74 4 -102 l-18 -28 -219 181 c-237 195
-367 287 -512 365 -51 27 -93 51 -93 55 0 10 85 48 99 43 7 -2 109 -56 226
-118z"/>
<path d="M5983 8931 c-109 -114 -112 -119 -106 -154 6 -37 8 -38 267 -179 305
-165 277 -147 701 -457 372 -272 333 -255 458 -198 211 95 182 228 -106 475
-82 71 -146 109 -596 356 -277 152 -504 276 -505 275 -1 0 -51 -53 -113 -118z
m617 -191 c459 -251 498 -275 591 -356 158 -138 219 -218 219 -290 0 -62 -71
-116 -206 -158 -16 -5 -51 16 -152 89 l-130 96 24 73 25 74 -22 44 c-51 100
-68 117 -207 210 -138 92 -555 338 -573 338 -6 0 -44 -29 -85 -65 l-74 -65 70
-46 c38 -26 70 -49 70 -51 0 -3 -39 17 -87 43 -198 106 -195 96 -60 232 56 56
103 102 104 102 1 0 223 -121 493 -270z m-217 -32 c117 -67 274 -164 350 -216
134 -91 139 -96 172 -162 l34 -67 -16 -52 c-9 -28 -21 -51 -26 -51 -4 0 -97
61 -205 137 -108 75 -237 164 -287 198 -49 34 -148 101 -219 150 l-128 88 53
48 c30 27 55 48 57 49 2 0 99 -55 215 -122z"/>
<path d="M9061 8580 c-56 -48 -69 -66 -84 -112 -22 -70 -22 -80 5 -155 22 -62
23 -62 71 -73 69 -15 71 -14 110 29 27 30 44 65 67 141 29 93 30 105 20 156
-6 29 -17 54 -23 54 -7 1 -32 5 -56 9 -43 9 -44 8 -110 -49z m162 -25 c11 -55
-34 -209 -78 -260 -29 -36 -32 -37 -74 -28 -41 8 -44 11 -63 62 -19 49 -19 59
-8 110 11 48 22 64 69 109 52 49 59 52 101 50 43 -3 44 -4 53 -43z"/>
<path d="M5583 8454 c-101 -124 -111 -140 -106 -168 3 -17 11 -36 17 -42 6 -6
180 -107 386 -225 490 -278 752 -450 838 -547 l64 -72 61 0 c184 0 236 78 252
372 0 4 -69 60 -153 125 -148 115 -171 128 -688 403 -295 157 -541 286 -548
288 -6 1 -62 -59 -123 -134z m727 -217 c441 -234 472 -253 610 -360 107 -84
144 -118 143 -133 -2 -10 -7 -59 -13 -108 -5 -48 -17 -104 -27 -125 -25 -51
-88 -81 -169 -81 l-62 0 -57 68 c-32 37 -88 87 -125 112 l-68 45 49 34 49 33
0 102 0 101 -245 154 c-219 137 -266 162 -437 233 l-192 79 -79 -79 -78 -78
95 -64 c104 -68 127 -90 44 -41 -29 17 -94 54 -145 83 -65 37 -93 59 -96 75
-3 17 21 53 97 147 l101 124 70 -37 c39 -21 279 -148 535 -284z m-352 44 c148
-61 202 -89 409 -219 l238 -150 2 -88 3 -89 -40 -28 -41 -27 -352 221 c-283
178 -474 303 -516 336 -7 6 102 113 115 113 6 0 88 -31 182 -69z"/>
<path d="M449 7738 c-48 -266 -83 -486 -80 -490 8 -9 374 -139 378 -134 7 7
64 328 60 339 -2 6 -16 -61 -31 -149 -16 -87 -31 -164 -35 -170 -4 -7 -70 12
-187 54 -146 51 -181 67 -178 80 2 10 40 224 85 477 45 253 83 462 85 464 4 4
345 -138 358 -150 4 -4 -15 -136 -44 -294 -29 -157 -50 -288 -48 -291 3 -2 29
129 58 291 29 162 52 297 49 299 -8 8 -363 156 -374 156 -6 0 -45 -191 -96
-482z"/>
<path d="M9078 8118 c-98 -45 -178 -84 -178 -87 0 -3 27 -14 60 -23 71 -21 62
11 91 -338 15 -185 19 -290 15 -382 l-7 -127 37 -56 c20 -30 40 -55 43 -55 3
1 23 23 44 51 26 33 65 65 115 95 73 42 80 44 132 38 l55 -6 -28 408 c-15 225
-30 428 -33 450 l-5 41 -58 13 c-46 9 -61 18 -70 36 -6 13 -16 24 -23 24 -7 0
-93 -37 -190 -82z m258 -2 c22 -4 44 -10 50 -14 8 -5 66 -758 64 -830 0 -9
-11 -10 -40 -6 -34 6 -49 1 -120 -41 -44 -26 -96 -65 -115 -88 -19 -22 -36
-39 -38 -36 -48 61 -49 64 -42 196 5 97 0 198 -19 415 -13 159 -27 292 -30
297 -3 4 -20 11 -37 15 -18 3 -29 9 -25 14 4 4 67 34 139 68 l132 61 21 -22
c12 -13 39 -26 60 -29z"/>
<path d="M9240 7993 c0 -21 7 -155 15 -298 8 -143 15 -278 15 -300 l0 -40 73
-28 c85 -31 87 -32 87 -13 0 8 -27 23 -65 37 -57 20 -65 26 -65 48 0 14 -7
143 -15 286 -8 143 -15 279 -15 303 0 30 -4 42 -15 42 -11 0 -15 -11 -15 -37z"/>
<path d="M2111 8138 c-43 -110 -96 -250 -107 -281 l-13 -38 132 -97 c120 -90
143 -102 254 -141 163 -58 159 -60 236 123 54 127 57 141 46 168 -10 25 -48
47 -270 159 -143 71 -261 129 -264 129 -3 0 -9 -10 -14 -22z m141 -70 c84 -44
96 -53 78 -60 -20 -8 -31 -28 -98 -184 l-30 -70 163 -85 c123 -63 159 -86 144
-91 -11 -4 -60 8 -129 33 -95 33 -128 52 -230 127 -66 48 -120 91 -120 96 0
19 105 286 114 286 5 0 53 -23 108 -52z m171 -109 c23 -12 79 -41 124 -66 l82
-44 -54 -110 c-30 -60 -57 -109 -60 -109 -5 0 -267 129 -273 135 -1 1 14 40
34 86 20 46 40 94 45 107 11 28 46 29 102 1z"/>
<path d="M5232 7909 c-68 -94 -122 -172 -120 -174 2 -2 327 -189 723 -415
l720 -412 50 26 c138 72 225 181 210 263 -8 48 -44 109 -87 150 -18 17 -114
85 -213 150 -165 109 -220 138 -660 347 -264 125 -484 230 -490 232 -5 2 -66
-73 -133 -167z m613 -93 c437 -207 486 -233 662 -349 104 -69 202 -140 218
-158 42 -51 68 -115 61 -153 -11 -60 -82 -132 -189 -194 l-38 -22 -204 117
c-120 69 -200 120 -192 124 6 3 30 10 51 13 67 12 178 67 173 85 -2 9 -19 71
-37 137 l-32 122 -423 191 c-232 105 -425 191 -428 191 -8 0 -187 -210 -187
-220 0 -4 178 -112 395 -240 217 -128 395 -234 395 -237 0 -2 -3 -2 -7 0 -103
59 -909 520 -910 521 -3 3 210 296 215 296 2 0 217 -101 477 -224z m104 -144
l345 -157 30 -114 c34 -131 37 -124 -61 -161 -102 -38 -80 -47 -523 214 -223
132 -409 242 -414 247 -4 4 27 48 69 97 l77 90 67 -30 c36 -16 221 -100 410
-186z m171 -478 c0 -2 -9 0 -20 6 -11 6 -20 13 -20 16 0 2 9 0 20 -6 11 -6 20
-13 20 -16z"/>
<path d="M8520 7564 c-63 -42 -118 -80 -123 -83 -4 -4 4 -86 17 -182 13 -96
23 -175 22 -176 -2 -2 -23 -6 -47 -9 l-45 -6 -38 71 c-20 39 -40 71 -43 71 -4
0 -41 -20 -83 -45 -73 -43 -78 -48 -134 -146 l-59 -101 7 -95 c4 -53 9 -121
13 -153 5 -49 3 -58 -13 -64 -13 -5 -33 8 -79 54 l-61 60 -72 -55 c-66 -52
-76 -65 -136 -178 l-65 -122 24 -110 c13 -61 28 -123 34 -138 10 -25 7 -32
-16 -62 l-27 -34 -45 33 -46 32 -77 -29 -77 -29 -37 -87 c-63 -146 -84 -219
-78 -265 11 -81 13 -86 59 -108 48 -23 55 -41 35 -92 -8 -22 -16 -26 -53 -26
-65 0 -154 -20 -171 -39 -7 -9 -35 -55 -60 -102 -45 -84 -46 -88 -46 -177 l0
-91 46 -7 c42 -6 45 -8 40 -33 -19 -101 -19 -111 4 -111 12 0 193 20 402 45
209 25 386 45 393 45 6 0 94 170 195 378 159 325 200 400 299 547 171 253 403
566 508 685 51 58 93 107 93 110 0 3 -71 46 -158 97 -164 96 -204 122 -187
123 6 0 75 -38 154 -85 79 -47 147 -83 151 -80 4 2 13 52 20 110 12 95 11 128
-10 354 l-24 249 -50 6 c-28 3 -72 6 -97 6 -44 0 -47 2 -89 60 -24 33 -46 60
-49 60 -4 0 -58 -34 -121 -76z m160 -18 l41 -54 84 -3 c46 -2 86 -6 88 -9 7
-6 48 -411 48 -470 1 -25 -5 -75 -11 -111 l-12 -67 -149 89 c-83 49 -153 89
-158 89 -4 0 -8 -18 -9 -40 -2 -34 1 -41 25 -54 15 -8 92 -52 170 -98 l143
-84 -72 -80 c-68 -76 -308 -392 -396 -521 -24 -35 -44 -63 -46 -63 -2 0 -43
33 -90 73 -79 66 -102 79 -279 154 -231 99 -233 100 -324 107 l-73 5 0 -45 c0
-36 7 -53 33 -86 27 -34 71 -60 279 -164 243 -122 249 -124 315 -124 55 0 71
4 91 23 30 27 26 20 -67 -117 -66 -98 -183 -326 -377 -733 -29 -62 -55 -113
-57 -113 -3 0 -177 -20 -387 -45 -211 -25 -384 -44 -386 -43 -1 2 2 23 6 48
15 75 14 78 -32 87 l-43 9 -3 77 c-3 78 -3 79 48 167 l51 89 52 10 c72 13 157
20 157 11 0 -13 -63 -95 -84 -110 -12 -8 -39 -31 -61 -51 -27 -24 -57 -40 -92
-48 -78 -19 -60 -38 40 -43 l82 -5 70 69 c47 45 76 84 89 115 10 27 39 83 63
126 l44 78 -13 82 -13 82 -38 -67 c-20 -36 -37 -71 -37 -77 0 -15 -2 -15 -64
15 -53 27 -54 27 -59 82 -6 57 5 98 72 257 25 62 34 72 73 92 78 38 89 38 142
-2 26 -21 48 -35 50 -33 1 1 19 25 40 52 l39 48 -16 47 c-10 25 -25 87 -36
136 l-18 90 60 118 c53 102 68 123 120 163 l59 47 63 -63 63 -63 32 23 c32 23
32 23 26 89 l-7 66 33 -31 c69 -65 187 -144 298 -199 63 -31 148 -82 188 -112
41 -30 75 -53 76 -51 30 38 77 131 70 137 -53 46 -112 85 -174 116 -64 32
-206 121 -234 146 -5 4 30 50 77 101 l87 93 -48 48 -47 48 -10 -48 c-9 -42
-21 -59 -94 -129 l-83 -82 -74 52 c-52 36 -74 57 -74 72 0 12 24 62 53 112 47
82 58 94 115 128 72 42 64 45 112 -47 l29 -56 65 11 c35 6 67 14 70 17 5 5
-22 236 -39 331 -4 26 4 33 98 97 56 39 105 70 109 70 4 1 26 -23 48 -53z
m-282 -559 c9 -10 -10 -35 -78 -109 l-89 -95 112 -75 c62 -41 141 -89 177
-106 36 -17 83 -47 104 -65 l39 -33 -23 -42 -23 -41 -46 35 c-25 19 -104 64
-174 100 -124 62 -247 144 -314 207 -22 21 -33 40 -33 59 0 15 3 28 8 28 4 -1
31 -18 61 -39 l55 -38 98 99 c54 55 98 106 98 114 0 18 14 18 28 1z m-378
-706 c172 -72 216 -95 277 -144 40 -32 75 -63 79 -68 3 -6 -2 -19 -12 -30 -13
-14 -30 -19 -74 -19 -53 0 -76 9 -301 119 -197 96 -249 126 -271 154 -16 20
-28 47 -28 60 0 22 2 23 63 19 50 -3 102 -21 267 -91z m-597 -749 c-22 -38
-48 -91 -59 -118 -21 -57 -136 -184 -166 -184 -30 0 -17 21 46 71 75 61 108
109 136 194 12 39 32 92 43 120 l21 49 9 -31 c8 -27 4 -41 -30 -101z"/>
<path d="M7458 5906 c-37 -42 -48 -62 -48 -89 0 -27 5 -36 28 -47 15 -7 121
-55 236 -106 115 -52 234 -107 263 -123 l54 -29 60 20 61 21 -6 40 c-4 22 -11
47 -15 56 -7 12 -462 253 -581 308 -3 2 -26 -22 -52 -51z m336 -126 c259 -133
274 -142 280 -172 7 -36 -1 -44 -55 -53 -30 -5 -50 0 -110 31 -41 20 -162 77
-269 125 -223 100 -228 105 -164 170 21 22 39 39 41 39 2 0 126 -63 277 -140z"/>
<path d="M1947 7583 c-2 -4 -33 -93 -67 -197 -62 -188 -63 -189 -42 -205 238
-186 242 -188 357 -221 61 -17 115 -33 121 -35 18 -5 124 295 124 349 l0 44
-182 101 c-101 55 -211 117 -245 136 -34 20 -63 32 -66 28z m95 -77 l65 -38
-43 -137 c-24 -75 -44 -140 -44 -146 0 -9 248 -167 284 -181 18 -7 21 -30 6
-39 -5 -3 -55 7 -110 24 -104 30 -121 40 -282 168 l-66 53 56 170 c31 93 59
169 62 168 4 -2 36 -20 72 -42z m275 -195 c46 -25 83 -51 83 -57 0 -11 -87
-204 -95 -213 -2 -2 -61 31 -130 74 -81 50 -124 82 -121 90 3 8 19 59 37 114
l32 101 56 -31 c31 -17 93 -52 138 -78z m-27 53 c0 -2 -9 0 -20 6 -11 6 -20
13 -20 16 0 2 9 0 20 -6 11 -6 20 -13 20 -16z m110 -59 c0 -3 -18 4 -40 15
-22 11 -40 23 -40 25 0 3 18 -4 40 -15 22 -11 40 -23 40 -25z"/>
<path d="M4915 7330 c-59 -105 -106 -192 -104 -194 2 -2 321 -165 709 -361
l705 -358 72 38 c80 41 166 112 188 156 41 78 1 176 -105 253 -121 89 -258
154 -687 327 -349 140 -504 214 -616 295 -26 19 -49 34 -51 34 -2 0 -52 -86
-111 -190z m333 21 c86 -43 270 -121 572 -243 459 -185 650 -309 650 -420 0
-73 -43 -124 -169 -198 l-70 -40 -261 130 c-143 71 -260 132 -260 135 0 2 12
-1 28 -7 15 -6 72 -11 127 -12 90 -1 103 1 133 22 47 34 62 70 62 149 l0 68
-490 230 c-270 127 -494 231 -498 233 -6 2 -86 -181 -117 -269 -5 -13 12 -27
69 -59 42 -23 76 -43 76 -46 0 -2 -56 24 -125 58 -94 47 -124 67 -120 78 3 8
45 83 92 166 l86 152 66 -43 c36 -23 103 -61 149 -84z m317 -216 c253 -119
462 -218 464 -221 11 -10 1 -106 -14 -134 -25 -47 -73 -64 -170 -57 -153 11
-228 42 -556 229 -164 94 -299 174 -299 179 0 8 39 109 75 192 9 22 21 37 28
34 7 -3 219 -103 472 -222z"/>
<path d="M4637 6728 c-48 -100 -86 -182 -85 -184 2 -1 73 -37 158 -79 194 -97
309 -150 839 -387 l425 -189 39 16 c70 28 175 102 207 146 77 108 0 216 -235
330 -116 55 -199 88 -525 206 -296 106 -593 233 -665 284 -31 21 -59 39 -63
39 -5 0 -47 -82 -95 -182z m171 97 c1 -1 -22 -61 -52 -133 -40 -96 -51 -133
-43 -140 7 -5 122 -71 257 -147 135 -76 249 -142 255 -147 5 -5 -62 24 -150
65 -197 92 -477 226 -483 232 -2 2 30 74 72 160 l76 157 32 -23 c18 -12 34
-23 36 -24z m277 -129 c39 -15 222 -93 408 -173 320 -138 337 -147 337 -172 0
-123 -85 -180 -249 -168 -174 12 -209 26 -530 209 -163 93 -299 173 -304 177
-4 4 14 59 40 123 l47 115 90 -42 c50 -23 123 -54 161 -69z m772 -290 c365
-156 447 -271 280 -395 -28 -21 -76 -51 -105 -65 l-52 -27 -289 128 c-159 71
-288 129 -286 131 1 2 40 -5 86 -14 206 -42 340 10 363 139 12 65 0 94 -47
116 -71 32 -34 23 50 -13z"/>
<path d="M2665 6649 c-15 -44 -50 -120 -79 -168 -28 -48 -58 -107 -66 -131
-12 -35 -30 -55 -103 -113 -79 -63 -99 -85 -188 -218 -54 -82 -135 -213 -178
-291 l-80 -143 11 -164 11 -165 43 -53 c24 -29 48 -62 54 -73 6 -11 16 -17 25
-14 19 8 9 26 -50 98 l-43 54 -11 156 -10 156 71 127 c40 71 117 198 173 283
94 144 109 161 189 224 77 60 92 76 117 133 15 35 46 94 69 131 22 38 53 108
70 157 35 104 34 95 16 95 -9 0 -24 -30 -41 -81z"/>
<path d="M4485 6298 c-7 -18 -45 -101 -83 -184 l-69 -152 161 -80 c189 -94
328 -157 801 -365 l350 -154 100 34 c321 111 388 230 200 353 -95 62 -232 115
-695 269 -432 144 -581 203 -682 271 -33 22 -62 40 -65 40 -2 0 -10 -15 -18
-32z m160 -85 c44 -22 119 -55 167 -73 49 -19 86 -35 84 -37 -1 -2 -67 20
-145 48 l-142 52 -24 -23 c-31 -30 -56 -94 -58 -153 l-2 -46 410 -197 410
-196 71 5 c54 3 83 10 117 30 63 37 81 81 78 188 l-1 36 -335 118 c-185 65
-334 119 -332 121 9 9 787 -260 880 -304 123 -58 197 -119 197 -163 0 -41 -41
-82 -127 -127 -83 -42 -213 -92 -241 -92 -30 0 -965 415 -1184 526 l-97 49 71
157 71 157 26 -18 c14 -10 62 -36 106 -58z m466 -220 c440 -157 468 -168 473
-193 14 -71 -33 -148 -103 -169 -93 -27 -102 -24 -528 178 l-398 189 3 42 c4
65 44 135 70 125 9 -3 226 -81 483 -172z"/>
<path d="M495 6117 c-53 -45 -41 -145 29 -257 24 -37 52 -65 101 -96 106 -68
151 -55 162 48 5 47 1 64 -30 130 -73 159 -190 237 -262 175z m116 -30 c69
-46 149 -185 149 -257 0 -45 -17 -80 -39 -80 -11 0 -49 18 -83 40 -65 43 -107
97 -134 173 -41 116 18 184 107 124z"/>
<path d="M3082 6043 c-49 -82 -80 -113 -197 -195 -74 -53 -109 -87 -197 -197
-60 -73 -108 -137 -108 -142 0 -29 36 5 128 121 83 104 119 141 185 187 116
81 173 137 218 214 44 75 45 79 25 79 -7 0 -32 -30 -54 -67z"/>
<path d="M2286 5311 c-8 -12 -55 17 494 -303 250 -146 512 -299 581 -339 l126
-74 7 -80 c5 -60 24 -134 79 -297 43 -131 77 -218 84 -218 7 0 13 3 13 7 0 5
-31 102 -70 218 -54 164 -71 229 -77 298 l-8 89 -170 100 c-410 241 -1022 597
-1037 603 -9 4 -19 2 -22 -4z"/>
<path d="M4366 4846 l-196 -191 -10 -85 c-6 -47 -13 -100 -16 -117 -4 -25 -1
-33 10 -33 9 0 17 13 20 33 5 29 26 185 26 191 0 2 83 83 185 180 l184 177
103 -55 c79 -42 147 -67 293 -110 l190 -55 325 -24 c263 -20 372 -24 570 -20
l245 5 -52 -34 c-32 -20 -80 -69 -127 -128 -69 -87 -76 -100 -82 -153 -6 -53
-8 -57 -28 -51 -20 6 -20 5 -5 -12 9 -11 60 -71 115 -134 96 -112 100 -119
144 -238 24 -67 50 -122 56 -122 13 0 217 76 246 91 14 8 18 22 18 63 0 44 3
55 19 59 45 11 48 35 71 425 12 205 20 375 18 377 -2 3 -58 -22 -125 -54
l-121 -59 -97 -177 c-54 -97 -102 -196 -108 -219 -5 -22 -11 -42 -13 -44 -1
-2 -38 4 -83 14 l-81 17 0 41 c0 52 14 78 90 171 41 50 88 93 138 127 43 28
82 55 87 60 6 7 -95 8 -285 5 -253 -4 -341 -1 -615 20 l-320 24 -175 51 c-133
38 -204 65 -296 113 l-122 62 -196 -191z m2290 -83 c-3 -43 -13 -202 -22 -353
-14 -254 -17 -276 -36 -292 -11 -10 -26 -18 -34 -18 -10 0 -14 -15 -14 -58 l0
-58 -107 -39 c-58 -22 -109 -41 -112 -43 -4 -1 -26 51 -50 115 -41 109 -50
125 -127 213 -45 52 -81 96 -79 98 1 1 41 -6 88 -17 97 -21 89 -25 102 53 3
21 50 116 103 212 l97 173 90 45 c50 25 94 45 99 45 4 1 5 -34 2 -76z"/>
<path d="M6366 4470 c-39 -75 -95 -222 -96 -252 -1 -35 177 41 256 109 l54 47
0 62 0 61 -75 32 c-41 17 -78 31 -83 31 -5 0 -30 -41 -56 -90z m180 10 c2 0 4
-20 4 -45 0 -40 -4 -49 -46 -87 -39 -36 -182 -112 -193 -103 -7 7 34 114 75
197 l44 88 56 -25 c31 -14 58 -25 60 -25z"/>
<path d="M4737 4807 c-4 -10 23 -30 81 -62 292 -161 507 -321 574 -424 52 -83
28 -135 -78 -168 -49 -15 -92 -18 -254 -17 -219 1 -365 23 -452 68 -33 17 -48
21 -48 12 0 -23 34 -44 105 -64 122 -36 214 -46 405 -47 154 0 196 3 248 19
81 24 132 69 132 117 0 123 -223 312 -641 543 -51 28 -68 33 -72 23z"/>
<path d="M2435 4781 c-13 -22 105 -545 182 -806 80 -270 188 -522 284 -660 60
-87 157 -181 171 -167 6 6 -15 35 -59 78 -123 122 -229 329 -336 659 -65 201
-142 503 -188 738 -30 156 -39 182 -54 158z"/>
<path d="M7300 4766 c-69 -12 -186 -37 -261 -56 l-135 -33 -82 20 -81 20 -5
-36 c-23 -147 -66 -516 -62 -527 3 -7 35 -28 71 -47 l67 -33 251 32 c139 17
291 42 339 54 l87 22 31 66 c25 53 29 73 25 111 -8 56 24 214 59 301 l25 61
-67 31 c-88 40 -114 41 -262 14z m227 -31 c31 -14 58 -27 60 -28 1 -2 -7 -27
-18 -57 -31 -82 -61 -239 -55 -290 4 -36 0 -56 -22 -100 -27 -54 -27 -55 -97
-72 -38 -10 -184 -33 -324 -51 l-254 -33 -56 29 c-31 17 -57 31 -59 32 -3 2
60 507 63 513 1 1 34 -5 72 -14 l70 -17 129 32 c122 31 362 78 411 80 12 1 48
-10 80 -24z"/>
<path d="M4505 4748 c-48 -18 -54 -24 -102 -111 -49 -87 -52 -96 -54 -172 l-2
-80 69 -7 c38 -4 69 -6 69 -5 1 1 26 38 57 83 45 65 59 94 71 154 15 71 14 75
-6 117 -23 48 -30 49 -102 21z"/>
<path d="M4825 4680 c3 -16 7 -43 10 -60 6 -40 -13 -136 -35 -181 -27 -53
-123 -136 -181 -156 -27 -10 -49 -21 -49 -25 0 -37 130 21 194 86 68 70 90
125 94 229 4 99 -2 137 -23 137 -11 0 -13 -8 -10 -30z"/>
<path d="M5675 4278 c-66 -27 -122 -52 -124 -54 -3 -2 0 -9 5 -14 6 -6 48 6
118 36 l108 45 15 -21 c14 -19 23 -21 106 -19 l92 3 88 -172 87 -172 -56 0
c-31 0 -154 -12 -272 -26 l-216 -26 -211 23 c-179 19 -253 33 -507 94 l-296
71 -6 -29 c-3 -17 -9 -157 -13 -311 l-6 -281 39 -218 c26 -147 43 -217 51
-217 18 0 17 9 -23 228 l-37 197 6 294 c3 161 8 295 10 297 2 2 125 -26 273
-62 225 -54 306 -69 495 -90 l227 -26 211 26 c116 14 250 26 297 26 l86 0
-105 202 -104 202 -94 -3 c-91 -2 -95 -1 -109 22 l-15 25 -120 -50z"/>
<path d="M4413 3983 c8 -443 26 -653 78 -903 30 -147 47 -200 65 -200 11 0 14
5 9 18 -25 66 -76 333 -94 502 -19 166 -31 445 -31 686 0 211 -2 234 -16 234
-16 0 -16 -28 -11 -337z"/>
<path d="M1993 4169 c-19 -19 97 -208 164 -265 101 -86 161 -125 249 -160 l86
-33 -16 24 c-9 14 -24 37 -33 52 -10 15 -32 59 -49 97 -35 78 -25 69 -229 194
-60 38 -122 76 -136 85 -18 12 -28 14 -36 6z m228 -159 l116 -70 32 -72 c18
-40 35 -79 38 -86 15 -37 -163 79 -247 161 -30 29 -70 82 -89 117 l-34 64 34
-23 c19 -12 86 -53 150 -91z"/>
<path d="M6970 3966 l-135 -32 -3 -64 c-1 -36 1 -90 5 -122 l8 -56 120 74 120
75 17 67 c20 75 22 92 11 91 -5 0 -69 -15 -143 -33z m105 -43 c-3 -21 -12 -46
-18 -55 -15 -22 -184 -128 -191 -120 -3 3 -6 40 -6 83 l0 77 103 25 c56 14
106 26 111 26 4 1 5 -16 1 -36z"/>
<path d="M5576 3123 c-4 -5 -143 -11 -309 -14 -244 -6 -313 -10 -357 -24 -92
-29 -210 -129 -210 -179 0 -22 4 -23 143 -34 207 -18 710 -16 745 2 21 11 170
36 215 36 5 0 5 26 2 58 -9 70 -38 112 -98 141 -43 21 -116 28 -131 14z m128
-47 c42 -25 60 -49 70 -99 l7 -28 -38 20 c-76 40 -185 119 -171 124 33 14 93
6 132 -17z m-91 -58 c51 -35 102 -68 112 -74 16 -9 9 -12 -45 -18 -35 -4 -76
-14 -91 -22 -52 -26 -832 -15 -859 13 -9 9 102 102 145 123 63 30 136 37 402
39 l242 1 94 -62z"/>
<path d="M4526 2597 c-42 -144 -76 -265 -76 -269 0 -5 6 -8 14 -8 7 0 50 56
96 125 l82 124 -30 26 c-25 21 -29 30 -23 53 5 17 18 31 34 36 22 8 49 -1 171
-58 l145 -67 348 -14 348 -13 73 25 c71 25 74 25 148 11 52 -11 74 -12 71 -4
-2 6 -15 44 -28 85 l-24 74 -60 27 -59 26 -141 -28 c-245 -50 -386 -62 -565
-48 l-155 11 -120 56 c-66 31 -132 65 -146 74 l-26 18 -77 -262z m514 74 c135
-11 174 -11 300 4 80 9 198 28 264 41 144 29 156 29 207 4 39 -20 54 -44 66
-101 l5 -27 -50 10 c-44 9 -60 7 -125 -15 l-74 -25 -344 13 -344 14 -149 69
c-127 59 -153 68 -173 59 -31 -14 -35 -7 -22 34 6 19 12 39 14 46 3 8 51 -10
137 -51 l133 -63 155 -12z m-484 -177 c-52 -77 -54 -76 -26 16 32 102 28 96
51 73 l21 -21 -46 -68z"/>
<path d="M4495 2238 c-230 -407 -275 -490 -275 -511 0 -28 37 -93 66 -116 14
-11 42 -23 62 -27 34 -7 32 -7 -39 -26 -140 -35 -140 -35 -326 -240 -171 -189
-173 -192 -199 -272 -60 -189 -154 -594 -154 -663 0 -14 5 -23 12 -21 6 2 21
58 33 124 27 146 74 339 121 500 l36 121 174 191 175 191 77 25 c79 25 171 40
304 51 86 7 113 -2 164 -57 87 -91 139 -305 105 -426 -12 -39 -8 -40 32 -6 17
14 160 90 317 169 365 183 493 258 608 357 27 23 42 28 88 28 45 0 59 -4 79
-25 14 -13 25 -32 25 -42 1 -16 2 -16 15 2 81 109 197 165 575 275 95 27 175
52 177 53 7 7 -10 67 -19 67 -33 0 -188 -40 -333 -86 -217 -69 -290 -84 -416
-84 -136 0 -216 15 -297 56 -60 31 -49 38 18 11 14 -5 113 -12 220 -15 195 -4
195 -4 320 28 147 38 250 81 250 105 0 9 -11 27 -25 40 -34 35 -136 35 -222 1
-121 -50 -247 -74 -453 -86 l-195 -12 -204 76 c-150 56 -207 74 -215 66 -8 -8
-6 -15 9 -26 40 -31 143 -78 284 -131 79 -30 174 -69 210 -88 77 -39 166 -55
305 -55 122 0 207 17 397 79 214 69 325 96 334 81 2 -4 -71 -29 -163 -55 -273
-77 -411 -133 -510 -207 -52 -39 -54 -39 -73 -22 -14 13 -41 20 -87 22 l-67 4
-68 -56 c-110 -90 -234 -161 -564 -326 l-313 -156 0 61 c0 75 -31 203 -64 262
l-25 43 132 89 c73 48 199 134 280 190 l149 101 251 -74 c187 -55 268 -83 315
-111 34 -21 65 -35 68 -32 3 2 -23 22 -58 43 -48 29 -125 57 -320 115 l-258
76 -277 -188 c-152 -104 -282 -189 -288 -189 -6 0 -24 14 -41 31 -40 43 -81
62 -120 57 -31 -4 -34 -2 -34 22 0 24 -3 25 -41 22 l-42 -4 6 38 c3 22 8 46
11 54 5 13 -6 18 -52 28 -59 12 -152 63 -152 82 0 13 347 629 366 649 11 13
33 5 150 -53 124 -60 150 -69 258 -88 102 -17 149 -19 301 -15 198 5 302 25
461 87 l82 32 56 -33 c31 -19 56 -39 56 -46 0 -16 -60 -92 -91 -116 -35 -25
-80 -33 -275 -48 -260 -20 -440 6 -597 85 l-82 41 -229 -308 c-167 -226 -226
-311 -217 -320 6 -6 12 -9 14 -6 2 2 102 138 222 301 l219 296 67 -34 c179
-89 393 -110 747 -72 120 13 154 31 222 122 35 46 40 58 31 75 -11 20 -127 94
-146 93 -5 0 -43 -14 -84 -31 -152 -64 -307 -92 -506 -92 -223 0 -327 23 -509
110 -82 39 -152 71 -155 71 -3 -1 -82 -136 -176 -302z m1938 -235 c32 -9 14
-35 -38 -55 -27 -11 -99 -33 -160 -49 -98 -26 -126 -29 -261 -29 -161 0 -274
8 -274 20 0 4 64 10 143 14 150 7 283 34 401 81 88 34 122 37 189 18z m-2004
-266 l50 -11 -6 -45 c-5 -36 -3 -47 13 -58 17 -13 9 -14 -73 -11 -80 3 -95 6
-117 27 -14 13 -30 39 -36 57 -9 27 -8 39 9 73 l21 40 45 -30 c24 -16 66 -35
94 -42z"/>
<path d="M7586 2272 c-151 -277 -160 -289 -254 -346 -8 -5 -130 -48 -271 -96
-193 -66 -257 -92 -260 -105 -2 -12 2 -16 10 -13 8 3 129 45 269 93 363 125
345 111 520 431 165 302 156 282 143 295 -7 7 -57 -76 -157 -259z"/>
<path d="M5988 2190 c-20 -11 -76 -32 -125 -47 -84 -26 -97 -27 -293 -26 -170
1 -228 5 -338 25 l-132 24 -191 -290 c-104 -159 -191 -293 -192 -299 -1 -5 3
-11 9 -13 6 -3 95 124 198 281 104 157 189 285 191 285 1 0 45 -20 98 -45 174
-81 245 -97 459 -103 207 -5 403 10 428 33 9 8 53 36 98 63 l82 49 -54 42
c-53 39 -58 41 -128 41 -52 -1 -83 -6 -110 -20z m207 -36 c17 -14 25 -28 19
-30 -6 -3 -41 -25 -79 -49 -60 -39 -78 -46 -154 -56 -138 -17 -391 -15 -496 5
-82 16 -251 73 -243 82 2 2 60 -4 129 -12 237 -30 462 -8 611 60 77 35 172 35
213 0z"/>
<path d="M4330 1081 c63 -10 85 -24 109 -74 56 -116 5 -321 -111 -443 -105
-111 -208 -123 -267 -32 -11 18 -21 28 -21 22 0 -18 40 -63 70 -79 145 -75
361 176 360 419 -1 125 -54 198 -145 195 l-40 -2 45 -6z"/>
<path d="M4214 1045 c-89 -64 -151 -164 -180 -295 -16 -69 -12 -199 5 -171 5
7 12 3 21 -15 44 -82 162 -66 251 34 134 151 157 397 42 455 -60 30 -87 28
-139 -8z m136 0 c46 -24 65 -68 65 -155 0 -91 -22 -158 -77 -240 -67 -101
-179 -157 -233 -116 -19 15 -19 15 5 10 19 -5 17 -2 -10 13 -73 38 -78 161
-13 293 21 41 36 79 35 83 -1 5 3 5 9 1 8 -5 10 -2 6 8 -3 10 8 28 31 51 69
65 125 81 182 52z"/>
<path d="M4230 1030 c-19 -10 -48 -33 -65 -52 l-30 -33 35 31 c101 91 196 82
215 -20 23 -118 -93 -349 -199 -397 -23 -10 -35 -19 -28 -19 25 0 68 29 111
75 85 93 148 277 122 358 -24 72 -90 95 -161 57z"/>
<path d="M11245 5919 c-191 -64 -390 -204 -621 -434 -213 -213 -374 -421 -482
-625 -85 -158 -270 -677 -342 -952 -127 -493 -114 -840 41 -1140 137 -261 372
-348 672 -248 339 113 724 474 964 905 170 304 342 781 417 1151 44 218 51
291 51 514 -1 187 -3 226 -22 302 -37 146 -61 195 -181 376 -115 173 -282 224
-497 151z m323 -30 c112 -55 206 -196 254 -379 21 -77 23 -108 23 -325 0 -206
-4 -258 -23 -368 -87 -485 -303 -1070 -509 -1379 -252 -378 -646 -687 -998
-783 -92 -26 -249 -31 -317 -11 -50 14 -60 22 -93 71 -122 185 -181 460 -156
735 11 124 30 244 54 350 l12 55 65 7 c140 16 262 79 380 197 163 164 284 407
336 676 35 183 15 486 -40 597 l-16 32 77 79 c223 225 464 394 647 453 51 17
96 23 157 24 76 0 93 -3 147 -31z m323 -490 c30 -120 37 -397 15 -569 -55
-422 -213 -924 -419 -1324 -54 -107 -189 -314 -259 -399 -249 -304 -536 -515
-790 -579 -120 -30 -251 -23 -339 19 -117 56 -116 58 38 59 128 0 145 3 238
33 353 116 715 409 964 780 219 326 432 907 515 1406 37 220 41 482 9 640 -12
62 7 16 28 -66z m-1304 -244 c22 -126 13 -343 -20 -485 -44 -187 -122 -356
-233 -503 -125 -167 -293 -275 -439 -285 l-74 -5 24 89 c13 49 53 174 88 278
69 204 76 210 77 66 0 -41 4 -80 8 -86 8 -12 45 -33 105 -58 l38 -15 97 90
c74 70 113 117 164 198 l67 106 1 166 0 166 -77 7 c-130 11 -147 9 -174 -20
-13 -14 -46 -45 -74 -68 l-49 -41 38 70 c85 154 201 321 320 459 l60 69 18
-54 c10 -30 26 -94 35 -144z m-117 -447 l0 -163 -63 -101 c-46 -75 -86 -123
-155 -188 -51 -48 -98 -86 -105 -83 -7 3 -35 15 -63 27 l-51 21 -7 76 c-11
140 -9 159 46 302 50 134 52 137 122 203 l71 67 103 1 102 0 0 -162z"/>
<path d="M10231 4624 c-46 -33 -69 -145 -35 -178 65 -65 164 92 108 172 -18
26 -41 28 -73 6z m69 -30 c14 -36 -6 -110 -38 -134 -32 -26 -38 -25 -58 5 -32
49 10 155 62 155 17 0 27 -8 34 -26z"/>
<path d="M1076 3173 c-3 -3 -6 -9 -6 -13 0 -8 196 -152 207 -152 26 1 2 28
-79 89 -111 83 -113 84 -122 76z"/>
<path d="M1015 3119 c-4 -6 -5 -12 -4 -13 111 -88 225 -164 233 -156 6 6 6 13
1 19 -22 19 -214 161 -219 161 -3 0 -8 -5 -11 -11z"/>
<path d="M975 3070 c-9 -14 -16 -7 114 -109 72 -56 108 -78 115 -71 6 6 6 13
1 18 -10 8 -190 148 -212 164 -6 5 -14 4 -18 -2z"/>
</g>
</svg>
